PathFileType	4	(X/Y/Z)	C:\Users\WrightLab\Desktop\Jo\P1.2Trial11.trc
DataRate	CameraRate	NumFrames	NumMarkers	Units	OrigDataRate	OrigDataStartFrame	OrigNumFrames
100.00	100.00	       19	19	mm	100.00	611	       814
Frame#	Time	Headset_Front			Headset_Back			Headset_Left			Headset_Right			Left_Shoulder			Right_Shoulder			Sternum			C7			Left Elbow			Right Elbow			Left Wrist			Right Wrist			Left ASIS			Right ASIS			S2			Left Knee			Right Knee			Left Ankle			Right Ankle			
		X1	Y1	Z1	X2	Y2	Z2	X3	Y3	Z3	X4	Y4	Z4	X5	Y5	Z5	X6	Y6	Z6	X7	Y7	Z7	X8	Y8	Z8	X9	Y9	Z9	X10	Y10	Z10	X11	Y11	Z11	X12	Y12	Z12	X13	Y13	Z13	X14	Y14	Z14	X15	Y15	Z15	X16	Y16	Z16	X17	Y17	Z17	X18	Y18	Z18	X19	Y19	Z19	

611	6.100	-579.97742	1331.07666	-342.34116	-611.83020	1507.60278	-93.16305	-711.38116	1426.49023	-206.88657	-486.78177	1387.00610	-236.77797	-829.31000	1229.74646	-102.14487	-406.54352	1226.95715	-117.81554	-624.72028	1151.16162	-219.61369	-612.59003	1300.93677	-1.69914	-929.86646	960.28314	-44.98362	-338.60593	984.62726	-39.70926	-998.54364	762.94904	-152.23787	-291.45358	730.34644	-102.25873	-771.82715	845.09973	-191.83505	-509.32950	819.23914	-149.56714	-647.43341	909.78357	96.00719	-805.05072	434.64011	-159.34457	-446.90686	400.68716	-108.21150	-842.81781	84.86951	-68.87888	-338.63083	164.97290	114.11885	
612	6.110	-585.59662	1331.43311	-347.23764	-618.56732	1508.87976	-99.43250	-717.53809	1427.02637	-213.24110	-493.31589	1387.81421	-242.95801	-835.31262	1229.29211	-107.65858	-412.62061	1229.62280	-126.55714	-630.25146	1151.99207	-225.19107	-618.36346	1301.96069	-7.53526	-932.46906	958.88660	-47.61973	-343.70715	986.12830	-46.37729	-1002.56183	760.03796	-147.58752	-297.30151	731.64081	-107.47528	-778.35559	845.50140	-197.71053				-652.11377	911.74933	92.62007	-808.14789	434.54007	-162.56250	-453.93228	401.75345	-120.72409	-843.02795	83.74857	-69.08939	-350.49951	167.99178	106.04241	
613	6.120	-591.48407	1332.16394	-353.31711	-624.48181	1509.82690	-105.19553	-723.58203	1427.48401	-219.02148	-498.60745	1388.17126	-247.57561	-841.31152	1229.04333	-113.34065	-417.84171	1231.57288	-127.92058	-635.17822	1152.75940	-230.11798	-625.18555	1303.35962	-13.01028	-934.47101	958.05609	-51.01371	-348.74734	988.03033	-53.16930	-1006.17725	757.65656	-142.61494	-302.73938	733.41840	-113.39487	-784.64258	846.10718	-203.43478				-655.27246	912.76929	87.16723	-810.01202	433.05902	-162.22697	-459.18661	403.33813	-135.61183	-843.51990	82.95837	-68.86423	-363.38394	170.30280	97.10503	
614	6.130	-596.63965	1332.24622	-358.73853	-630.89825	1510.61548	-111.04629	-729.25659	1428.28650	-225.20154	-503.73108	1388.80115	-253.35277	-846.75568	1228.88672	-119.09386	-423.22095	1233.06836	-135.49124	-640.37823	1153.54126	-235.84879	-631.27850	1304.17334	-18.53194	-935.14777	956.18158	-53.36801	-353.54892	989.24127	-59.23660	-1009.28650	755.70300	-138.41769	-307.71494	735.39801	-119.29991	-790.23737	846.54340	-209.65013	-521.87231	823.96173	-165.28024	-659.42841	913.57184	82.58859	-810.87787	430.32666	-162.68701	-465.07568	405.45694	-148.46947	-844.13794	82.38572	-68.71305	-376.59113	171.63231	87.60027	
615	6.140	-601.60394	1332.18994	-364.40256	-636.69904	1511.66638	-117.61580	-734.43549	1428.67175	-231.54427	-509.61798	1389.43457	-259.20798	-851.93884	1228.40894	-124.48148	-428.70609	1234.97180	-138.67703	-645.19666	1153.95496	-240.81102	-637.13989	1305.13806	-24.67319	-936.15112	955.04901	-56.01218	-357.97629	991.35394	-65.68024	-1011.66852	754.05475	-132.61566	-312.31467	738.02832	-125.77644	-795.23517	847.73816	-215.30222	-526.24152	825.38428	-169.39189	-662.18927	914.51898	76.70176	-812.84479	429.87122	-163.32220	-471.24484	407.22482	-159.84708	-844.60187	81.78953	-68.81084	-390.14609	172.87889	77.02227	
616	6.150	-607.11591	1332.58679	-369.47699	-642.61859	1512.73071	-124.29285	-739.74927	1429.48376	-238.00410	-514.76514	1389.95007	-264.15823	-857.13190	1228.23938	-129.92256	-434.09113	1236.68811	-145.09171	-649.57672	1155.13330	-247.37184	-641.98718	1306.08081	-29.89139	-935.91083	953.83423	-58.50742	-361.75381	993.78070	-70.45123	-1013.62317	753.20251	-129.28606	-316.44003	741.20239	-131.52576	-799.92383	848.27686	-220.80205	-529.84943	826.29877	-174.28960	-665.71667	915.65277	73.63522	-813.50726	429.10065	-163.74289	-477.04938	411.96198	-173.77003	-844.76849	81.38967	-68.87933	-404.13913	173.62387	65.05336	
617	6.160	-611.23907	1332.31067	-375.38480	-647.42566	1513.38550	-130.54588	-745.17407	1429.60034	-243.32234	-520.50970	1389.97900	-269.83936	-862.39996	1228.17175	-136.06158	-439.40015	1237.85083	-149.98166	-653.74603	1155.08899	-252.21034	-648.21991	1307.13623	-35.54417	-934.68347	952.22467	-61.11144	-365.95557	995.32001	-75.48106	-1014.97278	752.45898	-125.28043	-319.49835	743.68201	-137.48012	-803.72632	849.18762	-226.49271	-530.28894	828.68768	-180.26106	-668.79407	916.16620	68.06535	-813.47400	427.92252	-164.50089	-484.06210	415.50113	-186.05528	-844.77179	81.31542	-68.98840	-418.63904	173.12099	53.52024	
618	6.170	-616.18353	1331.95813	-380.92322	-653.27527	1514.44812	-137.02237	-749.71869	1430.14368	-250.90428	-524.43384	1390.18872	-276.58337	-867.06274	1228.07666	-141.39162	-444.32004	1239.75378	-155.93266	-657.89276	1155.82239	-257.20517	-653.26459	1307.98035	-41.09718	-934.42767	951.20728	-64.59961	-369.41959	998.19476	-79.88942	-1016.98517	752.15637	-122.56556	-322.79880	746.22778	-143.49197	-807.44525	849.80371	-231.52296	-534.59283	829.14502	-183.88676	-671.57550	916.73383	62.82738	-813.30933	427.51270	-165.12381	-490.74118	419.25491	-198.59335	-844.66919	81.47197	-69.16063	-433.00366	173.10101	40.43873	
619	6.180	-620.13147	1332.12622	-387.07990	-657.91193	1514.71130	-142.44151	-754.61603	1430.53333	-256.71811	-529.41406	1390.83167	-281.32568	-871.81580	1227.64294	-146.55679	-447.46793	1241.89941	-155.81773	-661.52100	1156.26868	-262.54990	-658.75403	1308.93970	-47.14855	-934.63806	951.01306	-66.17287	-372.57480	1000.43579	-83.70187	-1017.70813	751.29779	-119.44879	-325.24606	749.06372	-149.28088	-810.31696	849.91016	-236.74771				-674.99744	916.66168	57.74904	-812.87805	427.63229	-166.98512	-498.09616	422.54922	-209.77516	-844.57709	81.63309	-69.14890	-448.11594	172.22330	27.84362	
620	6.190	-624.25793	1332.24829	-392.42908	-662.38446	1514.88245	-149.51717	-758.99316	1430.38220	-263.45932	-533.46576	1391.03491	-287.41205	-876.29742	1227.49084	-151.62984	-452.27945	1243.75073	-160.06229	-665.82648	1156.83118	-268.89835	-663.62183	1309.23657	-53.10413	-935.50604	951.96381	-66.82951	-376.17316	1003.16986	-87.51609	-1018.04578	750.69232	-116.70742	-326.86847	752.17383	-154.46533	-812.37256	849.89050	-240.56573	-536.99573	832.12946	-195.99606	-676.42120	917.41718	52.63776	-812.05212	427.73288	-168.28003	-504.90033	424.90561	-220.85855	-844.68591	81.84100	-69.06385	-463.69821	170.36501	14.00052	
621	6.200	-628.15936	1332.00012	-398.58038	-667.14471	1515.10388	-155.91223	-763.70538	1430.75916	-269.92825	-537.62933	1390.87671	-293.46149	-880.88904	1227.65283	-156.89777	-456.93732	1244.93433	-162.60905	-668.97382	1156.42200	-273.99380	-668.80048	1309.77551	-59.41840	-936.47577	952.56732	-66.47269	-379.15231	1005.34430	-91.70354	-1018.15454	749.68445	-114.88137	-328.49524	754.46643	-158.16844	-814.43616	849.69214	-244.53699	-538.01385	833.65411	-202.06540	-680.02173	918.03815	46.79491	-811.90906	427.25342	-169.32663	-510.92926	429.14722	-230.78304	-844.93646	81.95943	-69.00436	-478.59756	168.36832	-0.14222	
622	6.210	-631.69690	1331.93347	-404.79587	-671.54260	1516.32300	-162.52621	-767.24701	1430.77820	-276.32813	-541.82629	1391.00342	-298.99860	-884.76300	1226.90381	-162.45871	-460.38202	1246.64392	-170.16505	-672.61115	1157.00220	-280.24976	-674.40967	1310.45544	-65.66452	-937.60474	953.32111	-66.81999	-382.10660	1007.60059	-95.51453	-1017.86224	748.85449	-113.91763	-329.30487	756.62561	-161.64020	-816.27173	849.76318	-248.53615	-540.29443	833.14850	-206.10852	-682.42828	918.04407	41.06611	-811.59918	426.66699	-170.94144	-518.94977	431.21255	-239.40349	-845.29260	82.25849	-68.67009	-492.32510	165.05515	-16.08974	
623	6.220	-635.12708	1332.23169	-410.97592	-676.08777	1515.55518	-168.39052	-771.24341	1430.47449	-282.77386	-545.55896	1391.35229	-304.74377	-889.15369	1226.42297	-167.34267	-464.86557	1247.57434	-177.82820	-675.72772	1157.00696	-285.82010	-677.75555	1310.46130	-70.82373	-938.37628	953.88983	-67.32428	-384.35461	1009.54462	-99.47781	-1017.86847	747.56073	-112.52629	-329.45932	759.44440	-165.22086	-816.78046	848.76233	-252.64745	-541.94434	833.85730	-213.10713	-684.55182	918.91266	35.55198	-811.44745	425.94495	-172.82491	-524.58295	433.77374	-249.12372	-845.69147	82.61178	-68.32907	-505.97488	161.92067	-33.09241	
624	6.230	-638.12036	1332.10144	-417.03088	-680.08197	1515.58411	-174.71730	-775.35071	1430.53406	-289.75754	-548.63385	1391.48120	-310.70181	-892.41217	1226.04932	-173.50305	-467.53629	1248.94958	-181.25500	-678.95618	1156.48035	-291.66586	-682.30994	1310.11292	-76.84054	-939.21222	954.49719	-68.50151	-387.26981	1011.28687	-102.39433	-1017.49237	746.54584	-112.35746	-329.28781	760.90497	-167.50275	-817.90320	847.35626	-256.13388	-543.05591	834.98962	-218.32556	-686.41998	919.22382	31.68875	-811.59326	425.34256	-173.66017	-529.52136	435.79648	-259.10358	-846.62885	82.66063	-66.41142	-518.68927	157.29051	-49.85877	
625	6.240	-641.37610	1332.40088	-423.08783	-684.27747	1514.60303	-180.40146	-778.42450	1429.80737	-296.04456	-552.70740	1391.68262	-316.25241	-896.04608	1225.77942	-179.32825	-471.61121	1249.06995	-184.57433	-682.09772	1156.62561	-297.64401	-686.27155	1310.56824	-84.10310	-940.42493	954.87372	-71.06254	-389.47647	1012.68256	-106.22430	-1017.32758	745.17456	-112.18737	-328.88803	762.63477	-169.69958	-818.12085	846.00739	-259.33075	-544.74695	834.63428	-224.76659	-688.90039	919.10907	26.92677	-812.00055	424.11288	-174.02650	-534.87329	438.50949	-269.61124	-846.95917	83.59235	-66.39122	-529.33588	153.95879	-67.09741	
626	6.250	-644.18530	1332.13245	-429.80948	-688.14575	1514.39172	-186.42807	-782.01776	1429.14539	-302.82126	-555.73212	1391.58337	-323.02670	-899.51605	1224.86804	-185.25513	-474.59991	1249.65442	-194.61594	-685.06061	1156.36938	-303.92178	-689.47906	1309.40601	-89.27831	-941.64465	956.23993	-74.45096	-391.42477	1014.13110	-109.62686	-1017.13867	744.44434	-113.64492	-328.07388	763.67499	-170.65572	-818.35742	844.36243	-263.11227	-547.93530	834.71399	-229.98792	-690.80035	919.18732	21.67375	-812.58960	423.57654	-176.13193	-540.22156	442.17828	-281.42041	-846.59741	83.85735	-66.13991	-540.27722	147.97717	-86.66695	
627	6.260	-646.60797	1332.04785	-436.17093	-692.15302	1513.79980	-193.16318	-785.34094	1428.78308	-309.54669	-558.74414	1391.75598	-328.58887	-902.61835	1224.11426	-191.73029	-477.87292	1249.14917	-191.96613	-687.56085	1155.21899	-309.45428	-693.48071	1309.21985	-96.40436	-942.72131	956.00885	-77.37173	-393.86600	1015.34949	-112.57919	-1017.29138	743.47711	-115.73500	-327.01651	765.58002	-172.01810	-818.53882	844.00885	-267.00085	-549.69519	834.05505	-236.30132	-693.22015	918.66626	15.88482	-813.50525	422.74167	-178.41525	-543.16681	445.23975	-290.59647	-846.27521	83.61047	-65.50046	-545.00922	148.01363	-101.04343	
628	6.270	-649.14667	1332.22888	-442.70575	-695.04053	1512.18665	-198.56084	-788.19092	1427.76733	-315.71100	-561.74750	1391.45605	-335.14096	-905.40436	1223.02954	-198.16856	-480.46121	1250.20288	-202.72368	-690.13110	1154.67554	-315.61371	-696.53455	1308.12012	-102.86047	-944.32776	955.48840	-81.17096	-395.63708	1015.96869	-116.11606	-1017.81866	742.04865	-118.84686	-326.13412	766.56909	-172.41183	-818.33539	841.54987	-270.09644	-551.80200	833.00397	-241.79416	-695.07477	918.23291	10.81555	-815.04974	421.61102	-180.68895	-549.76410	447.42618	-301.60834	-846.13092	83.73924	-65.25508	-558.29956	137.28465	-127.82624	
629	6.280	-651.12695	1331.73035	-448.98779	-698.29803	1511.85181	-205.09250	-791.21234	1426.44507	-322.57547	-564.53467	1391.59265	-342.35333	-907.89136	1221.73975	-204.70256	-482.83606	1249.66724	-208.13199	-692.29510	1153.36108	-321.83936	-699.31921	1308.38220	-108.32233	-946.06122	954.69037	-85.36201	-397.43839	1016.64795	-119.69163	-1018.47339	740.83026	-122.32675	-324.68640	767.73193	-173.69949	-818.77869	839.86987	-274.68906	-553.69275	832.65460	-247.49525	-697.01764	917.34729	4.49445	-816.98096	420.99112	-183.74655	-554.78125	449.31693	-311.43964	-845.70349	84.48809	-66.55824	-567.61841	131.52988	-150.01030	
